<?xml version="1.0" encoding="UTF-8" standalone="no"?>
<svg
   xmlns:dc="http://purl.org/dc/elements/1.1/"
   xmlns:cc="http://creativecommons.org/ns#"
   xmlns:rdf="http://www.w3.org/1999/02/22-rdf-syntax-ns#"
   xmlns:svg="http://www.w3.org/2000/svg"
   xmlns="http://www.w3.org/2000/svg"
   xmlns:sodipodi="http://sodipodi.sourceforge.net/DTD/sodipodi-0.dtd"
   xmlns:inkscape="http://www.inkscape.org/namespaces/inkscape"
   height="1000"
   width="1120"
   id="svg2"
   version="1.1"
   inkscape:version="0.91 r13725"
   sodipodi:docname="empty-cart-dark-resize.svg">
  <metadata
     id="metadata10">
    <rdf:RDF>
      <cc:Work
         rdf:about="">
        <dc:format>image/svg+xml</dc:format>
        <dc:type
           rdf:resource="http://purl.org/dc/dcmitype/StillImage" />
        <dc:title></dc:title>
      </cc:Work>
    </rdf:RDF>
  </metadata>
  <defs
     id="defs8" />
  <sodipodi:namedview
     pagecolor="#ffffff"
     bordercolor="#666666"
     borderopacity="1"
     objecttolerance="10"
     gridtolerance="10"
     guidetolerance="10"
     inkscape:pageopacity="0"
     inkscape:pageshadow="2"
     inkscape:window-width="886"
     inkscape:window-height="633"
     id="namedview6"
     showgrid="false"
     inkscape:zoom="1"
     inkscape:cx="14.00005"
     inkscape:cy="110"
     inkscape:window-x="0"
     inkscape:window-y="0"
     inkscape:window-maximized="0"
     inkscape:current-layer="svg2" />
  <path
     d="m 5e-5,876.4375 q 0,-0.625 0.40625,-1.03125 Q 0.81255,875 1.43755,875 l 7.34375,0 q 0.5,0 0.890625,0.29687 0.390625,0.29688 0.515625,0.79688 l 0.75,3.0625 21.062501,0 0.21875,-0.65625 q 0.3125,-1 1.34375,-1 0.28125,0 0.40625,0.0625 0.46875,0.125 0.75,0.5 0.28125,0.375 0.28125,0.84375 0,0.15625 -0.0625,0.40625 l -3.687502,12.28125 q -0.125,0.46875 -0.499999,0.75 -0.375,0.28125 -0.84375,0.28125 l -17.46875,0 q -0.5,0 -0.890625,-0.3125 Q 11.1563,892 11.0313,891.53125 l -3.375,-13.6875 -6.21875,0 q -0.59375,0 -1.015625,-0.40625 Q 5e-5,877.03125 5e-5,876.4375 Z m 11.625,5.5625 1.9375,7.75 15.28125,0 0.0625,-0.28125 2.25,-7.46875 -19.53125,0 z m 1.3125,15.125 q 0,-1.1875 0.859375,-2.03125 Q 14.6563,894.25 15.8438,894.25 q 1.1875,0 2.03125,0.84375 0.84375,0.84375 0.84375,2.03125 0,1.1875 -0.84375,2.03125 Q 17.0313,900 15.8438,900 14.6563,900 13.796925,899.15625 12.93755,898.3125 12.93755,897.125 Z m 2.03125,-12.6875 5.1875,0 0,2.875 -4.5625,0 z m 7.65625,2.875 0.03125,-2.875 5.0625,0 -0.75,2.875 -4.34375,0 z m 1.15625,9.8125 q 0,-1.1875 0.859375,-2.03125 0.859375,-0.84375 2.046875,-0.84375 1.1875,0 2.03125,0.84375 0.84375,0.84375 0.84375,2.03125 0,1.1875 -0.84375,2.03125 Q 27.87505,900 26.68755,900 25.50005,900 24.640675,899.15625 23.7813,898.3125 23.7813,897.125 Z"
     id="path4"
     inkscape:connector-curvature="0" />
</svg>
